<svg xmlns="http://www.w3.org/2000/svg" viewBox="0 0 800 420" role="img" aria-label="Hospitals">
  <defs>
    <linearGradient id="bg" x1="0" y1="0" x2="1" y2="1">
      <stop offset="0%" stop-color="#eef6ff"/>
      <stop offset="100%" stop-color="#d8ebff"/>
    </linearGradient>
  </defs>
  <rect width="800" height="420" fill="url(#bg)"/>
  <rect x="110" y="120" width="220" height="220" rx="8" fill="#ffffff" stroke="#7aa7d9" stroke-width="4"/>
  <rect x="300" y="80" width="240" height="260" rx="8" fill="#ffffff" stroke="#5b8fc8" stroke-width="5"/>
  <rect x="520" y="140" width="180" height="200" rx="8" fill="#ffffff" stroke="#7aa7d9" stroke-width="4"/>
  <rect x="390" y="110" width="60" height="60" rx="6" fill="#e53935"/>
  <rect x="413" y="122" width="14" height="36" fill="#ffffff"/>
  <rect x="402" y="133" width="36" height="14" fill="#ffffff"/>
  <rect x="355" y="210" width="130" height="130" rx="6" fill="#f4f8fc" stroke="#8fb4de" stroke-width="3"/>
  <rect x="140" y="170" width="44" height="34" fill="#dfefff"/>
  <rect x="196" y="170" width="44" height="34" fill="#dfefff"/>
  <rect x="252" y="170" width="44" height="34" fill="#dfefff"/>
  <rect x="140" y="220" width="44" height="34" fill="#dfefff"/>
  <rect x="196" y="220" width="44" height="34" fill="#dfefff"/>
  <rect x="252" y="220" width="44" height="34" fill="#dfefff"/>
  <rect x="545" y="185" width="40" height="30" fill="#dfefff"/>
  <rect x="603" y="185" width="40" height="30" fill="#dfefff"/>
  <rect x="545" y="232" width="40" height="30" fill="#dfefff"/>
  <rect x="603" y="232" width="40" height="30" fill="#dfefff"/>
  <text x="400" y="390" text-anchor="middle" fill="#34679b" font-family="Arial, sans-serif" font-size="32" font-weight="700">HOSPITALS</text>
</svg>
